<mxfile host="app.diagrams.net" agent="Mozilla/5.0 (X11; Ubuntu; Linux x86_64; rv:137.0) Gecko/20100101 Firefox/137.0" version="26.2.12">
  <diagram name="Page-1" id="IK0OR0q6s1fNNVFcNHqc">
    <mxGraphModel dx="1428" dy="790" grid="1" gridSize="10" guides="1" tooltips="1" connect="1" arrows="1" fold="1" page="1" pageScale="1" pageWidth="850" pageHeight="1100" math="0" shadow="0">
      <root>
        <mxCell id="0" />
        <mxCell id="1" parent="0" />
        <mxCell id="zIqcDA3sMNw5w352-z-q-1" style="edgeStyle=orthogonalEdgeStyle;rounded=0;orthogonalLoop=1;jettySize=auto;html=1;exitX=1;exitY=0.5;exitDx=0;exitDy=0;" edge="1" parent="1" source="zIqcDA3sMNw5w352-z-q-2" target="zIqcDA3sMNw5w352-z-q-3">
          <mxGeometry relative="1" as="geometry" />
        </mxCell>
        <mxCell id="zIqcDA3sMNw5w352-z-q-2" value="Provider" style="ellipse;whiteSpace=wrap;html=1;aspect=fixed;" vertex="1" parent="1">
          <mxGeometry x="210" y="280" width="80" height="80" as="geometry" />
        </mxCell>
        <mxCell id="zIqcDA3sMNw5w352-z-q-3" value="FCM" style="ellipse;shape=cloud;whiteSpace=wrap;html=1;" vertex="1" parent="1">
          <mxGeometry x="410" y="280" width="120" height="80" as="geometry" />
        </mxCell>
        <mxCell id="zIqcDA3sMNw5w352-z-q-4" value="" style="sketch=0;verticalLabelPosition=bottom;sketch=0;aspect=fixed;html=1;verticalAlign=top;strokeColor=none;fillColor=#000000;align=center;outlineConnect=0;pointerEvents=1;shape=mxgraph.citrix2.mobile;" vertex="1" parent="1">
          <mxGeometry x="650" y="300" width="25.255" height="50" as="geometry" />
        </mxCell>
        <mxCell id="zIqcDA3sMNw5w352-z-q-5" style="edgeStyle=orthogonalEdgeStyle;rounded=0;orthogonalLoop=1;jettySize=auto;html=1;exitX=0.875;exitY=0.5;exitDx=0;exitDy=0;exitPerimeter=0;entryX=-0.079;entryY=0.4;entryDx=0;entryDy=0;entryPerimeter=0;" edge="1" parent="1" source="zIqcDA3sMNw5w352-z-q-3" target="zIqcDA3sMNw5w352-z-q-4">
          <mxGeometry relative="1" as="geometry" />
        </mxCell>
        <mxCell id="zIqcDA3sMNw5w352-z-q-6" value="Android" style="text;html=1;align=center;verticalAlign=middle;whiteSpace=wrap;rounded=0;" vertex="1" parent="1">
          <mxGeometry x="632.63" y="360" width="60" height="30" as="geometry" />
        </mxCell>
      </root>
    </mxGraphModel>
  </diagram>
</mxfile>
